<?xml version="1.0" encoding="UTF-8"?>
<svg version="1.1" xmlns="http://www.w3.org/2000/svg" width="2000" height="2000">
<path d="M0 0 C660 0 1320 0 2000 0 C2000 660 2000 1320 2000 2000 C1340 2000 680 2000 0 2000 C0 1340 0 680 0 0 Z " fill="#000000" transform="translate(0,0)"/>
<path d="M0 0 C388.72535211 0 388.72535211 0 426.875 6.3125 C428.80623215 6.61950014 430.73754926 6.92596628 432.66894531 7.23193359 C461.51793712 11.86695167 489.2461029 18.93097461 517 28 C517.76562256 28.24983643 518.53124512 28.49967285 519.32006836 28.75708008 C544.22485861 36.96467943 568.48155899 47.5255177 591 61 C591.75796875 61.45310547 592.5159375 61.90621094 593.296875 62.37304688 C610.59537709 72.81229193 626.84031638 84.64604046 642 98 C643.17949219 99.01320313 643.17949219 99.01320313 644.3828125 100.046875 C656.84693188 110.94769805 669.00767306 122.78325832 679 136 C680.15986368 137.49371681 681.32005109 138.98718227 682.48046875 140.48046875 C690.76650469 151.23777856 698.23864859 162.22841994 705 174 C705.43151367 174.74491699 705.86302734 175.48983398 706.30761719 176.25732422 C716.2823733 193.5476453 724.1842648 211.24657364 731 230 C731.38929687 231.05316406 731.77859375 232.10632813 732.1796875 233.19140625 C740.69580415 257.36732418 744.82630741 282.7961719 747.67529297 308.17578125 C747.96842242 310.72534628 748.29387625 313.26818339 748.62890625 315.8125 C754.22582802 361.26686048 749.95728282 410.47193019 736 454 C735.70222656 454.9290918 735.40445312 455.85818359 735.09765625 456.81542969 C730.60607992 470.63028841 725.36586923 483.94284211 719 497 C718.52433594 497.97727051 718.04867188 498.95454102 717.55859375 499.96142578 C710.11577571 515.09214188 701.79181825 529.27333718 692 543 C691.46455566 543.75168457 690.92911133 544.50336914 690.37744141 545.27783203 C684.80427137 553.03608514 679.00524771 560.41851552 672.44921875 567.375 C670.50701065 569.45660102 668.64132266 571.56606209 666.78515625 573.72265625 C662.63216667 578.48728316 658.22028414 582.97169286 653.75 587.4375 C652.90880615 588.27788818 652.0676123 589.11827637 651.20092773 589.98413086 C646.16200448 594.97351482 641.10069596 599.7004879 635.5 604.0546875 C632.77130516 606.17795318 630.17872705 608.42737052 627.5625 610.6875 C606.69479433 628.07725473 556.25909154 669 528 669 C528.37678642 669.75024193 528.37678642 669.75024193 528.76118469 670.51564026 C531.44179354 675.85425127 534.11927609 681.19442261 536.79516602 686.53540039 C537.7862715 688.51266779 538.77810175 690.4895721 539.77075195 692.46606445 C541.22030627 695.35265788 542.6669997 698.2406719 544.11328125 701.12890625 C544.53773026 701.97264297 544.96217926 702.8163797 545.39949036 703.6856842 C548.18254265 709.25131063 550.88495718 714.85008938 553.55456829 720.47083187 C560.59938329 735.29129054 567.92534913 749.96623896 575.28233528 764.63313293 C577.09797746 768.25421813 578.9108739 771.87667746 580.72399902 775.49902344 C585.31358351 784.66722641 589.90658964 793.8337134 594.5 803 C599.46415133 812.90611121 604.42764406 822.81254953 609.38719225 832.72096634 C611.17855666 836.29959519 612.97074441 839.87780609 614.76506042 843.45495605 C622.18549724 858.24875531 629.5394833 873.06607715 636.62239075 888.02555847 C641.07084201 897.3935321 645.8008192 906.6263354 650.48657227 915.87719727 C651.73794658 918.35002224 652.98450178 920.82522846 654.23046875 923.30078125 C654.61156296 924.04951004 654.99265717 924.79823883 655.38529968 925.56965637 C658 930.77344178 658 930.77344178 658 933 C658.64463196 932.99555878 659.28926392 932.99111755 659.95343018 932.98654175 C666.76889793 932.94169428 673.58432265 932.91188394 680.39990234 932.89013672 C682.93084419 932.88018628 685.46177488 932.86662113 687.99267578 932.84912109 C707.97987203 932.71455383 727.56011734 932.80769491 746.88818359 938.390625 C749.17676547 939.05100655 751.47286739 939.6808371 753.76953125 940.3125 C791.31534418 950.87443586 822.28356316 972.08507142 852.0859375 996.60546875 C874.53656469 1015.05350423 897.51147558 1032.72252963 924 1045 C924.82894775 1045.3926001 925.65789551 1045.7852002 926.51196289 1046.18969727 C933.03224739 1049.23125817 939.61130024 1051.79425069 946.4375 1054.0625 C947.47229492 1054.40684082 948.50708984 1054.75118164 949.57324219 1055.10595703 C958.40842021 1057.96216849 967.28476066 1060.05025112 976.44143677 1061.56591797 C978.18712806 1061.86208936 979.92981342 1062.17640853 981.66941833 1062.50645447 C988.78040183 1063.80811086 995.5811364 1064.28200694 1002.80078125 1064.23046875 C1003.88022507 1064.23001053 1004.95966888 1064.22955231 1006.07182312 1064.2290802 C1008.33817657 1064.22608185 1010.60452842 1064.21826908 1012.87084961 1064.20581055 C1016.29353351 1064.18760091 1019.71594461 1064.18530115 1023.13867188 1064.18554688 C1038.57877078 1064.16238336 1053.73066617 1064.10474129 1068.875 1060.75 C1069.90818359 1060.52530029 1070.94136719 1060.30060059 1072.00585938 1060.0690918 C1113.81405765 1050.78307262 1148.17132786 1029.7968699 1180.92944336 1002.92871094 C1187.79431206 997.3123803 1194.82921812 991.93160128 1201.90625 986.58642578 C1203.95500136 985.03409528 1205.99392684 983.4696302 1208.03125 981.90234375 C1252.22982263 948.06671329 1297.29245517 933 1353 933 C1353 1065 1353 1197 1353 1333 C1345.08 1333.33 1337.16 1333.66 1329 1334 C1283.17687952 1339.31649464 1244.18067425 1354.65451194 1207.87548828 1383.51708984 C1206.13764608 1384.89116606 1204.38540733 1386.24219845 1202.62109375 1387.58203125 C1196.71266758 1392.06953529 1190.92577839 1396.67344323 1185.1875 1401.375 C1148.77713805 1431.13393083 1110.04984811 1454.80918367 1063 1463 C1061.33130859 1463.31710937 1061.33130859 1463.31710937 1059.62890625 1463.640625 C1047.21331828 1465.9009401 1034.72758758 1466.18658798 1022.14501953 1466.18530273 C1019.76706893 1466.18748434 1017.38958765 1466.20570623 1015.01171875 1466.22460938 C952.29802917 1466.45723203 902.04901658 1438.4825385 854.81811523 1399.72729492 C848.01847958 1394.1600339 841.0537176 1388.81957332 834.03320312 1383.53466797 C832.11373924 1382.08585073 830.20490777 1380.62397194 828.296875 1379.16015625 C803.47820723 1360.31635294 776.11314897 1347.22704345 745.97949219 1339.51123047 C744.23356788 1339.06032205 742.49499854 1338.58113815 740.7578125 1338.09765625 C686.05957391 1323.81928488 621.18848169 1334.78606435 573 1363 C556.02687023 1373.39861856 540.39520465 1385.53849079 525.01391602 1398.12524414 C517.48424735 1404.27144124 509.77868038 1410.17341045 502 1416 C500.92129639 1416.81235107 500.92129639 1416.81235107 499.82080078 1417.64111328 C471.63941032 1438.7787256 440.41937973 1455.70827794 405.36962891 1461.59863281 C403.01608408 1461.99727568 400.67037695 1462.42731373 398.32421875 1462.8671875 C385.28532759 1465.27899743 372.76570733 1466.18656082 359.5168457 1466.18530273 C356.96743691 1466.1874745 354.41847242 1466.2056415 351.86914062 1466.22460938 C341.09147929 1466.26141035 330.66950924 1465.48412351 320 1464 C318.3661684 1463.80747891 316.73210947 1463.61685788 315.09765625 1463.4296875 C294.86294714 1460.78846899 275.23691699 1454.04027677 257 1445 C256.24203125 1444.63181152 255.4840625 1444.26362305 254.703125 1443.88427734 C231.76609271 1432.66734702 211.77453893 1417.04163217 192.08691406 1400.94750977 C174.90881854 1386.92350111 157.32477478 1372.97781141 138 1362 C137.22011719 1361.55156738 136.44023438 1361.10313477 135.63671875 1360.64111328 C115.42114921 1349.15051688 93.80992502 1341.48229968 71 1337 C69.94296875 1336.78859375 68.8859375 1336.5771875 67.796875 1336.359375 C54.00904166 1333.83280868 40.0309971 1333.79277334 26.0625 1333.8125 C25.20350098 1333.81343658 24.34450195 1333.81437317 23.45947266 1333.81533813 C-12.72898063 1333.90066447 -47.92776055 1339.21433464 -80 1357 C-81.36963643 1357.74117236 -82.73943191 1358.48205086 -84.109375 1359.22265625 C-103.34309285 1369.72981843 -120.92566298 1382.79628604 -137.72973633 1396.81884766 C-144.5880552 1402.53052264 -151.63433617 1407.96847526 -158.77148438 1413.32617188 C-160.30131079 1414.47521765 -161.82852177 1415.62775135 -163.35351562 1416.78320312 C-173.56604235 1424.51495412 -183.82009004 1431.74010502 -195 1438 C-195.5863623 1438.33692871 -196.17272461 1438.67385742 -196.77685547 1439.02099609 C-207.41687788 1445.12391933 -218.52923423 1449.69635202 -230 1454 C-231.23105469 1454.474375 -232.46210938 1454.94875 -233.73046875 1455.4375 C-257.86543911 1464.16426894 -283.55165294 1466.15436042 -309 1466.1875 C-309.69279053 1466.18867828 -310.38558105 1466.18985657 -311.09936523 1466.19107056 C-323.40259132 1466.18869528 -335.70173883 1465.89379164 -347.8125 1463.5625 C-348.48474609 1463.44068359 -349.15699219 1463.31886719 -349.84960938 1463.19335938 C-397.09357985 1454.48458545 -434.51901471 1431.65378508 -471.16064453 1401.50537109 C-476.36753671 1397.24393001 -481.6734137 1393.11020679 -487 1389 C-488.1135083 1388.13737549 -488.1135083 1388.13737549 -489.24951172 1387.25732422 C-535.78969222 1351.32841836 -580.44498716 1336.68440103 -639 1332 C-639 1200.33 -639 1068.66 -639 933 C-605.48351396 933 -605.48351396 933 -595.25 935.1875 C-594.0964502 935.41453613 -592.94290039 935.64157227 -591.75439453 935.87548828 C-582.66346547 937.72070842 -573.74856556 939.90862653 -565 943 C-564.27699707 943.25507324 -563.55399414 943.51014648 -562.80908203 943.77294922 C-540.1646521 951.90782817 -519.21748979 963.5555188 -500 978 C-498.94554687 978.79019531 -497.89109375 979.58039062 -496.8046875 980.39453125 C-490.85590963 984.91823334 -485.03488557 989.58158653 -479.25 994.3125 C-471.65839509 1000.51965661 -463.91459349 1006.50464765 -456.08935547 1012.41357422 C-454.05034445 1013.96177398 -452.0258448 1015.52725242 -450.00390625 1017.09765625 C-440.42668261 1024.48773078 -430.48421721 1030.96903039 -420 1037 C-419.31357422 1037.39815918 -418.62714844 1037.79631836 -417.91992188 1038.20654297 C-367.14554422 1067.34438963 -301.22039006 1072.75241486 -245.01318359 1057.87207031 C-211.01303625 1048.03180728 -182.61995795 1030.65708017 -155 1009 C-153.7088121 1007.99677934 -152.41719206 1006.99411443 -151.125 1005.9921875 C-146.44362653 1002.34967096 -141.79915486 998.66825748 -137.22265625 994.89453125 C-99.02106544 963.41043248 -51.42902861 933 0 933 C0 625.11 0 317.22 0 0 Z " fill="#CD43E8" transform="translate(647,334)"/>
<path d="M0 0 C33.51648604 0 33.51648604 0 43.75 2.1875 C45.48032471 2.5280542 45.48032471 2.5280542 47.24560547 2.87548828 C56.33653453 4.72070842 65.25143444 6.90862653 74 10 C74.72300293 10.25507324 75.44600586 10.51014648 76.19091797 10.77294922 C98.8353479 18.90782817 119.78251021 30.5555188 139 45 C140.05445313 45.79019531 141.10890625 46.58039063 142.1953125 47.39453125 C148.14409037 51.91823334 153.96511443 56.58158653 159.75 61.3125 C167.34160491 67.51965661 175.08540651 73.50464765 182.91064453 79.41357422 C184.94965555 80.96177398 186.9741552 82.52725242 188.99609375 84.09765625 C198.57331739 91.48773078 208.51578279 97.96903039 219 104 C219.68642578 104.39815918 220.37285156 104.79631836 221.08007812 105.20654297 C271.85445578 134.34438963 337.77960994 139.75241486 393.98681641 124.87207031 C427.98696375 115.03180728 456.38004205 97.65708017 484 76 C485.2911879 74.99677934 486.58280794 73.99411443 487.875 72.9921875 C492.55637347 69.34967096 497.20084514 65.66825748 501.77734375 61.89453125 C540.73648041 29.78609595 586.80785509 1 639 1 C639 84.16 639 167.32 639 253 C688.5 253 738 253 789 253 C789 181.39 789 109.78 789 36 C799.12410981 41.62450545 799.12410981 41.62450545 802.32421875 44.1640625 C803.03529785 44.72295166 803.74637695 45.28184082 804.47900391 45.85766602 C805.20780762 46.44088623 805.93661133 47.02410645 806.6875 47.625 C807.46786621 48.24109131 808.24823242 48.85718262 809.05224609 49.49194336 C810.63203954 50.739667 812.20987617 51.98987265 813.78564453 53.24267578 C815.75484466 54.80544342 817.73168527 56.35735646 819.71484375 57.90234375 C824.446544 61.59126165 829.16008282 65.29572343 833.7890625 69.11328125 C862.86592522 93.08913025 894.29221525 113.9970155 931 124 C932.17949219 124.33644531 933.35898437 124.67289063 934.57421875 125.01953125 C953.78653063 130.31662234 973.24858925 131.53887823 993.10229492 131.50097656 C996.66733019 131.50000549 1000.23019503 131.54179835 1003.79492188 131.5859375 C1059.34535235 131.87192922 1107.73881311 108.44993641 1150.23681641 74.40722656 C1153.43379114 71.85566711 1156.65626452 69.33650904 1159.875 66.8125 C1161.05999837 65.88164093 1162.24490421 64.95066406 1163.4296875 64.01953125 C1164.70199219 63.01986328 1164.70199219 63.01986328 1166 62 C1168.91738338 64.52627117 1170.28710436 67.29420194 1171.93359375 70.7578125 C1172.49369141 71.92763672 1173.05378906 73.09746094 1173.63085938 74.30273438 C1174.2331578 75.57678279 1174.83536911 76.8508724 1175.4375 78.125 C1176.06643742 79.4436552 1176.69600288 80.76201103 1177.32617188 82.08007812 C1178.60979043 84.76705257 1179.89009099 87.45556659 1181.16748047 90.14550781 C1183.76108309 95.60527889 1186.38161184 101.05208482 1189 106.5 C1189.9791993 108.54165102 1190.95836552 110.5833179 1191.9375 112.625 C1195.28016722 119.58889003 1198.63959558 126.54465911 1202 133.5 C1206.83545477 143.50838947 1211.65518473 153.52418207 1216.4609375 163.546875 C1220.2940757 171.53764986 1224.14463122 179.51993765 1228 187.5 C1233.37990887 198.63656772 1238.74699847 209.77918502 1244.08984375 220.93359375 C1246.11439527 225.15949249 1248.14992156 229.37991285 1250.19140625 233.59765625 C1250.70485596 234.66193848 1251.21830566 235.7262207 1251.74731445 236.82275391 C1252.72846149 238.8564621 1253.71254437 240.88875727 1254.69995117 242.91943359 C1255.13412354 243.82129395 1255.5682959 244.7231543 1256.015625 245.65234375 C1256.59231934 246.84331665 1256.59231934 246.84331665 1257.18066406 248.05834961 C1258 250 1258 250 1258 252 C1310.8 252 1363.6 252 1418 252 C1417.34767312 242.33106487 1417.34767312 242.33106487 1414.18240356 234.28924561 C1413.89121104 233.6998763 1413.60001852 233.110507 1413.30000198 232.50327802 C1412.33677819 230.5645214 1411.34869807 228.63966956 1410.35986328 226.71386719 C1409.65680567 225.31193603 1408.95534753 223.9092018 1408.25535583 222.5057373 C1406.35953511 218.71577612 1404.44183729 214.93727998 1402.52002954 211.16044521 C1400.49794654 207.17672657 1398.49691025 203.18246298 1396.49362183 199.18927002 C1392.68898214 191.61308076 1388.86645799 184.04607017 1385.03701198 176.48239446 C1379.87680138 166.28830411 1374.74118962 156.08184759 1369.60550094 145.87538767 C1368.35824213 143.39664326 1367.11089909 140.91794126 1365.86349487 138.43927002 C1365.45766548 137.63281705 1365.05183609 136.82636408 1364.63370883 135.99547315 C1361.87845103 130.52194787 1359.11596949 125.05210964 1356.35061646 119.5836792 C1349.21487661 105.46479111 1342.17078887 91.31888775 1335.394104 77.02294922 C1332.1451373 70.17828822 1328.75933547 63.40350844 1325.35511208 56.63505936 C1324.22219581 54.38244385 1323.09210385 52.1284284 1321.96257019 49.87411499 C1319.58154815 45.12323687 1317.19724974 40.3740078 1314.8125 35.625 C1312.00566221 30.0350214 1309.20021179 24.44435419 1306.39804649 18.85203171 C1305.28505171 16.63251317 1304.16966008 14.41421028 1303.05415344 12.19595337 C1302.38209634 10.85546586 1301.71014888 9.51492337 1301.03833008 8.17431641 C1300.44973709 7.00236725 1299.8611441 5.83041809 1299.25471497 4.62295532 C1298 2 1298 2 1298 1 C1304.08361798 0.11534276 1309.99731093 -0.16039093 1316.140625 -0.16796875 C1317.58402252 -0.17296135 1317.58402252 -0.17296135 1319.05657959 -0.17805481 C1321.09044928 -0.18309789 1323.12432718 -0.18546395 1325.15820312 -0.18530273 C1328.19936667 -0.18746402 1331.24015168 -0.20557779 1334.28125 -0.22460938 C1351.80440401 -0.27579556 1368.9743175 0.50503889 1385.88818359 5.390625 C1388.17676547 6.05100655 1390.47286739 6.6808371 1392.76953125 7.3125 C1430.31534418 17.87443586 1461.28356316 39.08507142 1491.0859375 63.60546875 C1513.53656469 82.05350423 1536.51147558 99.72252963 1563 112 C1564.24342163 112.58890015 1564.24342163 112.58890015 1565.51196289 113.18969727 C1572.03224739 116.23125817 1578.61130024 118.79425069 1585.4375 121.0625 C1586.47229492 121.40684082 1587.50708984 121.75118164 1588.57324219 122.10595703 C1597.40842021 124.96216849 1606.28476066 127.05025112 1615.44143677 128.56591797 C1617.18712806 128.86208936 1618.92981342 129.17640853 1620.66941833 129.50645447 C1627.78040183 130.80811086 1634.5811364 131.28200694 1641.80078125 131.23046875 C1642.88022507 131.23001053 1643.95966888 131.22955231 1645.07182312 131.2290802 C1647.33817657 131.22608185 1649.60452842 131.21826908 1651.87084961 131.20581055 C1655.29353351 131.18760091 1658.71594461 131.18530115 1662.13867188 131.18554688 C1677.57877078 131.16238336 1692.73066617 131.10474129 1707.875 127.75 C1708.90818359 127.52530029 1709.94136719 127.30060059 1711.00585938 127.0690918 C1752.81405765 117.78307262 1787.17132786 96.7968699 1819.92944336 69.92871094 C1826.79431206 64.3123803 1833.82921812 58.93160128 1840.90625 53.58642578 C1842.95500136 52.03409528 1844.99392684 50.4696302 1847.03125 48.90234375 C1891.22982263 15.06671329 1936.29245517 0 1992 0 C1992 132 1992 264 1992 400 C1980.12 400.495 1980.12 400.495 1968 401 C1922.17687952 406.31649464 1883.18067425 421.65451194 1846.87548828 450.51708984 C1845.13764608 451.89116606 1843.38540733 453.24219845 1841.62109375 454.58203125 C1835.71266758 459.06953529 1829.92577839 463.67344323 1824.1875 468.375 C1787.77713805 498.13393083 1749.04984811 521.80918367 1702 530 C1700.33130859 530.31710937 1700.33130859 530.31710937 1698.62890625 530.640625 C1686.21331828 532.9009401 1673.72758758 533.18658798 1661.14501953 533.18530273 C1658.76706893 533.18748434 1656.38958765 533.20570623 1654.01171875 533.22460938 C1591.29802917 533.45723203 1541.04901658 505.4825385 1493.81811523 466.72729492 C1487.01847958 461.1600339 1480.0537176 455.81957332 1473.03320312 450.53466797 C1471.11373924 449.08585073 1469.20490777 447.62397194 1467.296875 446.16015625 C1442.47820723 427.31635294 1415.11314897 414.22704345 1384.97949219 406.51123047 C1383.23356788 406.06032205 1381.49499854 405.58113815 1379.7578125 405.09765625 C1325.05957391 390.81928488 1260.18848169 401.78606435 1212 430 C1195.02687023 440.39861856 1179.39520465 452.53849079 1164.01391602 465.12524414 C1156.48424735 471.27144124 1148.77868038 477.17341045 1141 483 C1139.92129639 483.81235107 1139.92129639 483.81235107 1138.82080078 484.64111328 C1110.63941032 505.7787256 1079.41937973 522.70827794 1044.36962891 528.59863281 C1042.01608408 528.99727568 1039.67037695 529.42731373 1037.32421875 529.8671875 C1024.28532759 532.27899743 1011.76570733 533.18656082 998.5168457 533.18530273 C995.96743691 533.1874745 993.41847242 533.2056415 990.86914062 533.22460938 C980.09147929 533.26141035 969.66950924 532.48412351 959 531 C957.3661684 530.80747891 955.73210947 530.61685788 954.09765625 530.4296875 C933.86294714 527.78846899 914.23691699 521.04027677 896 512 C895.24203125 511.63181152 894.4840625 511.26362305 893.703125 510.88427734 C870.76609271 499.66734702 850.77453893 484.04163217 831.08691406 467.94750977 C813.90881854 453.92350111 796.32477478 439.97781141 777 429 C775.83017578 428.32735107 775.83017578 428.32735107 774.63671875 427.64111328 C754.42114921 416.15051688 732.80992502 408.48229968 710 404 C708.94296875 403.78859375 707.8859375 403.5771875 706.796875 403.359375 C693.00904166 400.83280868 679.0309971 400.79277334 665.0625 400.8125 C664.20350098 400.81343658 663.34450195 400.81437317 662.45947266 400.81533813 C626.27101937 400.90066447 591.07223945 406.21433464 559 424 C557.63036357 424.74117236 556.26056809 425.48205086 554.890625 426.22265625 C535.65690715 436.72981843 518.07433702 449.79628604 501.27026367 463.81884766 C494.4119448 469.53052264 487.36566383 474.96847526 480.22851562 480.32617188 C478.69868921 481.47521765 477.17147823 482.62775135 475.64648438 483.78320312 C465.43395765 491.51495412 455.17990996 498.74010502 444 505 C443.4136377 505.33692871 442.82727539 505.67385742 442.22314453 506.02099609 C431.58312212 512.12391933 420.47076577 516.69635202 409 521 C407.76894531 521.474375 406.53789062 521.94875 405.26953125 522.4375 C381.13456089 531.16426894 355.44834706 533.15436042 330 533.1875 C329.30720947 533.18867828 328.61441895 533.18985657 327.90063477 533.19107056 C315.59740868 533.18869528 303.29826117 532.89379164 291.1875 530.5625 C290.51525391 530.44068359 289.84300781 530.31886719 289.15039062 530.19335938 C241.90642015 521.48458545 204.48098529 498.65378508 167.83935547 468.50537109 C162.63246329 464.24393001 157.3265863 460.11020679 152 456 C150.8864917 455.13737549 150.8864917 455.13737549 149.75048828 454.25732422 C103.21030778 418.32841836 58.55501284 403.68440103 0 399 C0 267.33 0 135.66 0 0 Z " fill="#FEFEFE" transform="translate(8,1267)"/>
<path d="M0 0 C229.87937395 0 229.87937395 0 253.0625 4.125 C254.26092529 4.33672852 255.45935059 4.54845703 256.6940918 4.76660156 C312.44016317 15.06353129 366.07547163 38.81414001 402 84 C402.79535156 84.96679688 403.59070312 85.93359375 404.41015625 86.9296875 C442.66651985 134.58341459 452.99635874 198.73855162 447.4296875 258.22265625 C446.81854626 263.52019506 445.9821327 268.75969335 445 274 C444.87189941 274.72735352 444.74379883 275.45470703 444.61181641 276.20410156 C436.03239327 324.80961774 409.09035093 369.73650251 370 400 C369.44715332 400.42925781 368.89430664 400.85851562 368.32470703 401.30078125 C336.36388306 425.93928371 298.31660319 440.92772292 259 449 C258.14929932 449.17893799 257.29859863 449.35787598 256.42211914 449.54223633 C251.23393805 450.6145761 246.07648839 451.47075155 240.8125 452.0625 C239.8524707 452.17948242 239.8524707 452.17948242 238.87304688 452.29882812 C159.77515402 461.45753151 79.62636813 454 0 454 C0 304.18 0 154.36 0 0 Z " fill="#000000" transform="translate(797,458)"/>
<path d="M0 0 C78.21 0 156.42 0 237 0 C246.22201345 18.4440269 246.22201345 18.4440269 249.76953125 25.72265625 C250.17232803 26.54771164 250.57512482 27.37276703 250.99012756 28.2228241 C252.26520714 30.83558468 253.53897922 33.44897931 254.8125 36.0625 C255.25297668 36.96585083 255.69345337 37.86920166 256.14727783 38.79992676 C261.9367547 50.67471425 267.691944 62.56419621 273.37109375 74.4921875 C276.5343084 81.13212163 279.73686951 87.75305048 282.9375 94.375 C287.30415423 103.41069933 291.66130671 112.45082915 296 121.5 C300.31874566 130.50707144 304.65453965 139.50579744 309 148.5 C313.83545477 158.50838947 318.65518473 168.52418207 323.4609375 178.546875 C327.2940755 186.53764946 331.14453425 194.51998475 335 202.5 C339.83402982 212.50544013 344.65268958 222.51811416 349.45654297 232.53808594 C353.33109701 240.61595962 357.22630038 248.68376584 361.125 256.75 C366.79399957 268.47917214 372.41709931 280.22959878 378 292 C357.26845166 313.49344277 330.02710856 331.52095895 303 344 C301.90042969 344.51949219 300.80085938 345.03898437 299.66796875 345.57421875 C283.6749628 352.80237446 266.77636146 357.57119537 249.50863647 360.54957581 C247.85932195 360.84570925 246.21380505 361.16399908 244.57342529 361.50617981 C237.53175267 362.93173063 230.7626785 363.32124554 223.58984375 363.3359375 C222.42409317 363.3425943 221.25834259 363.3492511 220.05726624 363.35610962 C217.59572918 363.36618506 215.13416508 363.37092823 212.67260742 363.37060547 C208.99934689 363.37492723 205.32734141 363.41116123 201.65429688 363.44921875 C141.13599669 363.73413405 92.1834384 339.6392173 46.265625 301.94140625 C38.91492105 295.90771895 31.4836048 290.01931626 23.875 284.3125 C23.10075684 283.73145508 22.32651367 283.15041016 21.52880859 282.55175781 C20.75359863 281.97393555 19.97838867 281.39611328 19.1796875 280.80078125 C18.04854365 279.91836667 18.04854365 279.91836667 16.89454842 279.01812553 C14.00091407 276.88072852 14.00091407 276.88072852 10.48754692 275.34291267 C6.26842897 273.22759886 2.71055175 270.93960256 0 267 C-2.67254545 258.8802854 -1.76593789 249.77922654 -1.58935547 241.35498047 C-1.58540376 238.72279233 -1.58701175 236.09115153 -1.59555054 233.45903015 C-1.60286958 227.80353488 -1.55919036 222.15031166 -1.48022079 216.49538803 C-1.36612655 208.31987379 -1.32995014 200.14545098 -1.31238891 191.96922697 C-1.28179591 178.70249556 -1.18876127 165.43697363 -1.05615234 152.17089844 C-0.92751932 139.28912281 -0.82864568 126.40767811 -0.76904297 113.52539062 C-0.76529101 112.72239729 -0.76153904 111.91940396 -0.75767338 111.09207749 C-0.72855911 104.81154285 -0.70116299 98.53100101 -0.67430949 92.25045633 C-0.54238801 61.49919386 -0.26070658 30.75096132 0 0 Z " fill="#000000" transform="translate(797,1036)"/>
</svg>
